<svg width="21" height="20" viewBox="0 0 21 20" fill="none" xmlns="http://www.w3.org/2000/svg">
<path d="M16.6883 8.12381C16.6883 9.91652 16.1062 11.5725 15.1257 12.9161L20.0713 17.8646C20.5596 18.3528 20.5596 19.1456 20.0713 19.6338C19.583 20.1221 18.79 20.1221 18.3017 19.6338L13.3561 14.6853C12.0123 15.6696 10.356 16.2476 8.5629 16.2476C4.0744 16.2476 0.4375 12.6114 0.4375 8.12381C0.4375 3.63619 4.0744 0 8.5629 0C13.0514 0 16.6883 3.63619 16.6883 8.12381ZM8.5629 13.748C9.30162 13.748 10.0331 13.6025 10.7156 13.3199C11.3981 13.0372 12.0182 12.623 12.5406 12.1007C13.0629 11.5784 13.4773 10.9584 13.76 10.2761C14.0427 9.59373 14.1882 8.86239 14.1882 8.12381C14.1882 7.38523 14.0427 6.65389 13.76 5.97153C13.4773 5.28917 13.0629 4.66917 12.5406 4.14692C12.0182 3.62466 11.3981 3.21039 10.7156 2.92775C10.0331 2.64511 9.30162 2.49963 8.5629 2.49963C7.82418 2.49963 7.09269 2.64511 6.4102 2.92775C5.72771 3.21039 5.10758 3.62466 4.58523 4.14692C4.06287 4.66917 3.64852 5.28917 3.36582 5.97153C3.08312 6.65389 2.93762 7.38523 2.93762 8.12381C2.93762 8.86239 3.08312 9.59373 3.36582 10.2761C3.64852 10.9584 4.06287 11.5784 4.58523 12.1007C5.10758 12.623 5.72771 13.0372 6.4102 13.3199C7.09269 13.6025 7.82418 13.748 8.5629 13.748Z" fill="#D9D9D9"/>
</svg>
