<svg width="21" height="20" viewBox="0 0 21 20" fill="none" xmlns="http://www.w3.org/2000/svg">
<path d="M18.8594 0.847656C18.0039 -0.00781251 16.6211 -0.00781251 15.7656 0.847656L14.5898 2.01953L18.4141 5.84375L19.5898 4.66797C20.4453 3.8125 20.4453 2.42969 19.5898 1.57422L18.8594 0.847656ZM7.17188 9.44141C6.93359 9.67969 6.75 9.97266 6.64453 10.2969L5.48828 13.7656C5.375 14.1016 5.46484 14.4727 5.71484 14.7266C5.96484 14.9805 6.33594 15.0664 6.67578 14.9531L10.1445 13.7969C10.4648 13.6875 10.7578 13.5078 11 13.2695L17.5352 6.73047L13.707 2.90234L7.17188 9.44141ZM4.1875 2.5C2.11719 2.5 0.4375 4.17969 0.4375 6.25V16.25C0.4375 18.3203 2.11719 20 4.1875 20H14.1875C16.2578 20 17.9375 18.3203 17.9375 16.25V12.5C17.9375 11.8086 17.3789 11.25 16.6875 11.25C15.9961 11.25 15.4375 11.8086 15.4375 12.5V16.25C15.4375 16.9414 14.8789 17.5 14.1875 17.5H4.1875C3.49609 17.5 2.9375 16.9414 2.9375 16.25V6.25C2.9375 5.55859 3.49609 5 4.1875 5H7.9375C8.62891 5 9.1875 4.44141 9.1875 3.75C9.1875 3.05859 8.62891 2.5 7.9375 2.5H4.1875Z" fill="#212121"/>
</svg>
