<svg width="21" height="20" viewBox="0 0 21 20" fill="none" xmlns="http://www.w3.org/2000/svg">
<path d="M10.4375 20C15.9609 20 20.4375 15.5234 20.4375 10C20.4375 4.47656 15.9609 0 10.4375 0C4.91406 0 0.4375 4.47656 0.4375 10C0.4375 15.5234 4.91406 20 10.4375 20ZM14.8516 8.16406L9.85156 13.1641C9.48438 13.5312 8.89062 13.5312 8.52734 13.1641L6.02734 10.6641C5.66016 10.2969 5.66016 9.70312 6.02734 9.33984C6.39453 8.97656 6.98828 8.97266 7.35156 9.33984L9.1875 11.1758L13.5234 6.83594C13.8906 6.46875 14.4844 6.46875 14.8477 6.83594C15.2109 7.20312 15.2148 7.79687 14.8477 8.16016L14.8516 8.16406Z" fill="#D9D9D9"/>
</svg>
