<svg width="29" height="30" viewBox="0 0 29 30" fill="none" xmlns="http://www.w3.org/2000/svg">
<g id="Message Icon">
<path id="Vector" d="M9.0625 21.5634C10.5635 21.5634 11.7812 22.8232 11.7812 24.3761V25.3136L15.8877 22.126C16.3578 21.7627 16.9299 21.5634 17.5189 21.5634H25.375C25.8734 21.5634 26.2812 21.1415 26.2812 20.6259V3.75016C26.2812 3.23451 25.8734 2.81262 25.375 2.81262H3.625C3.12656 2.81262 2.71875 3.23451 2.71875 3.75016V20.6259C2.71875 21.1415 3.12656 21.5634 3.625 21.5634H9.0625ZM11.7812 28.8294L11.7699 28.8411L11.4811 29.0638L10.5125 29.8138C10.2406 30.0247 9.87246 30.0599 9.56094 29.9017C9.24941 29.7435 9.0625 29.4212 9.0625 29.0638V27.8157V27.4406V27.4231V27.1887V24.3761H6.34375H3.625C1.62559 24.3761 0 22.6943 0 20.6259V3.75016C0 1.68171 1.62559 0 3.625 0H25.375C27.3744 0 29 1.68171 29 3.75016V20.6259C29 22.6943 27.3744 24.3761 25.375 24.3761H17.5189L11.7812 28.8294Z" fill="#212121"/>
</g>
</svg>
